<?xml version="1.0" encoding="utf-8"?>
<!-- Generator: Adobe Illustrator 25.3.1, SVG Export Plug-In . SVG Version: 6.00 Build 0)  -->
<svg version="1.1" id="Layer_1" xmlns="http://www.w3.org/2000/svg" xmlns:xlink="http://www.w3.org/1999/xlink" x="0px" y="0px"
	 viewBox="0 0 24 24" style="enable-background:new 0 0 24 24;" xml:space="preserve">
<style type="text/css">
	.st0{fill:none;}
	.st1{fill:#C0FF36;}
</style>
<g>
	<rect class="st0" width="24" height="24"/>
</g>
<g>
	<path class="st1" d="M12,3c-5,0-9,4-9,9v7c0,1.1,0.9,2,2,2h4v-8H5v-1c0-3.9,3.1-7,7-7s7,3.1,7,7v1h-4v8h4c1.1,0,2-0.9,2-2v-7
		C21,7,17,3,12,3z M7,15v4H5v-4H7z M19,19h-2v-4h2V19z"/>
</g>
</svg>
