<?xml version="1.0" encoding="UTF-8" standalone="no"?>
<!-- Generator: Adobe Illustrator 25.2.0, SVG Export Plug-In . SVG Version: 6.00 Build 0)  -->

<svg
   version="1.1"
   id="Layer_1"
   x="0px"
   y="0px"
   viewBox="0 0 7164 7188"
   style="enable-background:new 0 0 7164 7188;"
   xml:space="preserve"
   sodipodi:docname="familine-movies.svg"
   inkscape:version="1.1.1 (3bf5ae0d25, 2021-09-20)"
   inkscape:export-filename="D:\Projets\Familine\icns\familine-movies.png"
   inkscape:export-xdpi="24"
   inkscape:export-ydpi="24"
   xmlns:inkscape="http://www.inkscape.org/namespaces/inkscape"
   xmlns:sodipodi="http://sodipodi.sourceforge.net/DTD/sodipodi-0.dtd"
   xmlns="http://www.w3.org/2000/svg"
   xmlns:svg="http://www.w3.org/2000/svg"><defs
   id="defs11" /><sodipodi:namedview
   id="namedview9"
   pagecolor="#ffffff"
   bordercolor="#666666"
   borderopacity="1.0"
   inkscape:pageshadow="2"
   inkscape:pageopacity="0.0"
   inkscape:pagecheckerboard="0"
   showgrid="false"
   inkscape:zoom="0.092097941"
   inkscape:cx="1438.6858"
   inkscape:cy="3599.429"
   inkscape:window-width="1600"
   inkscape:window-height="847"
   inkscape:window-x="-8"
   inkscape:window-y="-8"
   inkscape:window-maximized="1"
   inkscape:current-layer="Layer_1" />
<style
   type="text/css"
   id="style2">
	.st0{fill:none;}
	.st1{fill:#41EF3B;}
</style>
<path
   class="st0"
   d="M0,0h7164v7188H0V0z"
   id="path4" />
<path
   class="st1"
   d="M5373,898.5v599h-597v-599H2388v599h-597v-599h-597v5391h597v-599h597v599h2388v-599h597v599h597v-5391H5373z   M2388,5091.5h-597v-599h597V5091.5z M2388,3893.5h-597v-599h597V3893.5z M2388,2695.5h-597v-599h597V2695.5z M4179,5690.5H2985  v-4193h1194V5690.5z M5373,5091.5h-597v-599h597V5091.5z M5373,3893.5h-597v-599h597V3893.5z M5373,2695.5h-597v-599h597V2695.5z"
   id="path6"
   style="fill:#efd03b;fill-opacity:1" />
</svg>
