<?xml version="1.0" encoding="utf-8"?>
<!-- Generator: Adobe Illustrator 25.3.1, SVG Export Plug-In . SVG Version: 6.00 Build 0)  -->
<svg version="1.1"
	 id="Layer_1" inkscape:version="1.1.1 (3bf5ae0d25, 2021-09-20)" sodipodi:docname="familine-planning.svg" xmlns:inkscape="http://www.inkscape.org/namespaces/inkscape" xmlns:sodipodi="http://sodipodi.sourceforge.net/DTD/sodipodi-0.dtd" xmlns:svg="http://www.w3.org/2000/svg"
	 xmlns="http://www.w3.org/2000/svg" xmlns:xlink="http://www.w3.org/1999/xlink" x="0px" y="0px" viewBox="0 0 7164 7188"
	 style="enable-background:new 0 0 7164 7188;" xml:space="preserve">
<style type="text/css">
	.st0{fill:none;}
	.st1{fill:url(#path6_1_);}
</style>
<sodipodi:namedview  bordercolor="#666666" borderopacity="1.0" id="namedview9" inkscape:current-layer="Layer_1" inkscape:cx="3577.713" inkscape:cy="3599.429" inkscape:pagecheckerboard="0" inkscape:pageopacity="0.0" inkscape:pageshadow="2" inkscape:window-height="847" inkscape:window-maximized="1" inkscape:window-width="1600" inkscape:window-x="-8" inkscape:window-y="-8" inkscape:zoom="0.092097941" pagecolor="#ffffff" showgrid="false">
	</sodipodi:namedview>
<path id="path4" class="st0" d="M0,0h7164v7188H0V0z"/>
<linearGradient id="path6_1_" gradientUnits="userSpaceOnUse" x1="6111.0439" y1="1037.5441" x2="1052.9559" y2="6095.6323">
	<stop  offset="0" style="stop-color:#3BEF6F"/>
	<stop  offset="1" style="stop-color:#8FEFAB"/>
</linearGradient>
<path id="path6" class="st1" d="M5671.5,898.5H5373v-599h-597v599H2388v-599h-597v599h-298.5c-328.3,0-597,269.6-597,599v4193
	c0,329.5,268.7,599,597,599h4179c328.4,0,597-269.5,597-599v-4193C6268.5,1168.1,5999.9,898.5,5671.5,898.5z M5671.5,5690.5h-4179
	v-2995h4179V5690.5z M1492.5,2096.5v-599h4179v599H1492.5z M2089.5,3294.5h2985v599h-2985V3294.5z M2089.5,4492.5H4179v599H2089.5
	V4492.5z"/>
</svg>
