<?xml version="1.0" encoding="UTF-8" standalone="no"?>
<!-- Generator: Adobe Illustrator 25.2.0, SVG Export Plug-In . SVG Version: 6.00 Build 0)  -->

<svg
   version="1.1"
   id="Layer_1"
   x="0px"
   y="0px"
   viewBox="0 0 7164 7188"
   style="enable-background:new 0 0 7164 7188;"
   xml:space="preserve"
   sodipodi:docname="familine-photos.svg"
   inkscape:version="1.1.1 (3bf5ae0d25, 2021-09-20)"
   inkscape:export-filename="D:\Projets\Familine\icns\familine-photos.png"
   inkscape:export-xdpi="13.72"
   inkscape:export-ydpi="13.72"
   xmlns:inkscape="http://www.inkscape.org/namespaces/inkscape"
   xmlns:sodipodi="http://sodipodi.sourceforge.net/DTD/sodipodi-0.dtd"
   xmlns="http://www.w3.org/2000/svg"
   xmlns:svg="http://www.w3.org/2000/svg"><defs
   id="defs11" /><sodipodi:namedview
   id="namedview9"
   pagecolor="#ffffff"
   bordercolor="#666666"
   borderopacity="1.0"
   inkscape:pageshadow="2"
   inkscape:pageopacity="0.0"
   inkscape:pagecheckerboard="0"
   showgrid="false"
   inkscape:zoom="0.092097941"
   inkscape:cx="3577.713"
   inkscape:cy="3599.429"
   inkscape:window-width="1600"
   inkscape:window-height="847"
   inkscape:window-x="-8"
   inkscape:window-y="-8"
   inkscape:window-maximized="1"
   inkscape:current-layer="Layer_1" />
<style
   type="text/css"
   id="style2">
	.st0{fill:none;}
	.st1{fill:#3BEF80;}
</style>
<path
   class="st0"
   d="M0,0h7164v7188H0V0z"
   id="path4" />
<path
   class="st1"
   d="M5581.95,3713.8c-89.55-59.9-179.1-89.85-268.65-119.8c89.55-29.95,179.1-59.9,268.65-119.8  c567.15-329.45,895.5-928.45,895.5-1557.4c-268.65-149.75-597-239.6-895.5-239.6s-597,89.85-895.5,239.6  c-89.55,59.9-149.25,89.85-238.8,149.75c29.85-89.85,29.85-179.7,29.85-269.55c0-658.9-358.2-1257.9-895.5-1557.4  c-537.3,299.5-895.5,898.5-895.5,1557.4c0,89.85,0,179.7,29.85,269.55c-89.55-29.95-149.25-89.85-238.8-149.75  c-268.65-149.75-597-239.6-895.5-239.6c-328.35,0-626.85,89.85-895.5,239.6c0,628.95,328.35,1227.95,895.5,1557.4  c89.55,59.9,179.1,89.85,268.65,119.8c-89.55,29.95-179.1,59.9-268.65,119.8c-567.15,329.45-895.5,928.45-895.5,1557.4  c268.65,149.75,567.15,239.6,895.5,239.6c298.5,0,626.85-89.85,895.5-239.6c89.55-59.9,149.25-119.8,238.8-149.75  c-29.85,89.85-29.85,179.7-29.85,269.55c0,658.9,358.2,1227.95,895.5,1557.4c537.3-299.5,895.5-898.5,895.5-1557.4  c0-89.85,0-179.7-29.85-299.5c59.7,59.9,149.25,119.8,238.8,149.75c268.65,149.75,597,239.6,895.5,239.6s626.85-89.85,895.5-239.6  C6477.45,4642.25,6149.1,4043.25,5581.95,3713.8z M4835.7,2545.75c59.7-59.9,119.4-89.85,149.25-119.8  c179.1-89.85,388.05-149.75,597-149.75c89.55,0,149.25,0,238.8,29.95c-89.55,269.55-268.65,509.15-537.3,658.9  c-59.7,29.95-119.4,59.9-179.1,89.85l-417.9,149.75c-59.7-149.75-119.4-269.55-208.95-359.4  C4477.5,2815.3,4835.7,2545.75,4835.7,2545.75z M3582,1018.3c179.1,209.65,298.5,479.2,298.5,778.7c0,59.9,0,119.8-29.85,179.7  l-59.7,419.3c-59.7,0-149.25,0-208.95,0s-149.25,0-208.95,29.95l-59.7-419.3c-29.85-89.85-29.85-149.75-29.85-209.65  C3283.5,1497.5,3402.9,1227.95,3582,1018.3z M1343.25,2306.15c89.55-29.95,149.25-29.95,238.8-29.95c208.95,0,417.9,59.9,597,149.75  c59.7,29.95,89.55,59.9,149.25,119.8l328.35,299.5c-89.55,119.8-149.25,239.6-208.95,359.4l-417.9-149.75  c-59.7-59.9-89.55-59.9-149.25-89.85C1611.9,2815.3,1432.8,2575.7,1343.25,2306.15z M2328.3,4642.25  c-59.7,59.9-119.4,89.85-149.25,119.8c-179.1,89.85-388.05,149.75-597,149.75c-89.55,0-149.25,0-238.8-29.95  c89.55-269.55,268.65-509.15,537.3-658.9c59.7-29.95,119.4-59.9,179.1-89.85l417.9-149.75c59.7,149.75,119.4,269.55,208.95,359.4  C2686.5,4372.7,2328.3,4642.25,2328.3,4642.25z M3582,6169.7c-179.1-209.65-298.5-509.15-298.5-778.7c0-59.9,0-119.8,29.85-179.7  l59.7-419.3c59.7,0,149.25,29.95,208.95,29.95s149.25,0,208.95-29.95l59.7,419.3c0,59.9,29.85,119.8,29.85,179.7  C3880.5,5690.5,3761.1,5960.05,3582,6169.7z M5581.95,4911.8c-208.95,0-417.9-59.9-597-149.75c-59.7-29.95-89.55-59.9-149.25-89.85  l-328.35-299.5c89.55-119.8,149.25-239.6,208.95-359.4l417.9,149.75c59.7,29.95,119.4,59.9,179.1,89.85  c268.65,149.75,447.75,389.35,537.3,658.9C5731.2,4911.8,5671.5,4911.8,5581.95,4911.8z"
   id="path6"
   style="fill:#3bef3b;fill-opacity:1" />
</svg>
